<svg width="52" height="52" fill="none" xmlns="http://www.w3.org/2000/svg"><path d="M9.457 26.02c0-9.933 7.814-18.074 17.618-18.602a19.357 19.357 0 00-1.013-.028c-10.273 0-18.63 8.357-18.63 18.63s8.357 18.63 18.63 18.63c.34 0 .677-.01 1.013-.028-9.804-.528-17.618-8.67-17.618-18.602z" fill="#D4E1F4"/><path d="M26.062 11.272c-8.15 0-14.782 6.616-14.782 14.748s6.632 14.748 14.782 14.748 14.783-6.616 14.783-14.748-6.632-14.748-14.783-14.748zm0 28.28c-7.48 0-13.567-6.07-13.567-13.532s6.086-13.533 13.567-13.533S39.63 18.557 39.63 26.02c0 7.462-6.087 13.533-13.568 13.533z" fill="#0097B7"/><path d="M50.352 25.409h-4.455C45.579 14.949 37.13 6.501 26.67 6.185V1.71a.608.608 0 00-1.215 0v4.475c-10.46.317-18.91 8.765-19.228 19.224h-4.58a.607.607 0 100 1.216h4.58c.315 10.462 8.766 18.914 19.227 19.23v4.436a.608.608 0 101.215 0v-4.436c10.462-.316 18.913-8.768 19.228-19.23h4.455a.608.608 0 000-1.215v-.001zM26.062 44.65c-10.273 0-18.63-8.357-18.63-18.63 0-10.272 8.357-18.63 18.63-18.63s18.63 8.358 18.63 18.63c0 10.273-8.357 18.63-18.63 18.63z" fill="#0097B7"/><path d="M33.008 20.218c-.39-.78-1.61-2.508-4.524-1.714a5.546 5.546 0 00-1.649.745 6.492 6.492 0 01-.832.457l-.19-.109c-.712-.412-1.79-1.034-2.745-1.16-1.957-.26-3.53.568-4.211 2.213-.687 1.663-.281 3.687.925 4.607.108.083.223.157.343.22.677.36 1.122.621 1.244.82.087.14.069.417.021.98l-.028.351c-.071.925-.176 4.07 1.442 5.742.126.122.28.212.447.263a1.118 1.118 0 001.482-1.234 12.342 12.342 0 01.007-2.062c.09-1.032.357-2.458 1.12-3.387a.22.22 0 01.314.001c1.407 1.755 1.13 5.174 1.104 5.45a1.125 1.125 0 001.482 1.232c.168-.051.321-.142.448-.264 1.617-1.671 1.512-4.816 1.442-5.74l-.029-.35c-.047-.564-.066-.841.021-.982.122-.198.567-.46 1.245-.82.12-.064.235-.139.343-.223 1.265-.982 1.628-3.336.778-5.036zm-1.524 4.078a1.162 1.162 0 01-.167.108c-1.911 1.015-2.04 1.38-1.906 2.977l.027.34c.119 1.546-.073 3.52-.935 4.611.062-.876.181-4.192-1.38-6.14a1.425 1.425 0 00-2.202-.013c-1.594 1.94-1.475 5.273-1.413 6.153-.861-1.092-1.053-3.065-.935-4.61l.028-.342c.134-1.598.005-1.963-1.908-2.976a1.255 1.255 0 01-.174-.111c-.763-.584-1.01-2.039-.54-3.178.273-.66 1.016-1.727 2.93-1.474.716.096 1.706.667 2.297 1.009.203.117.378.218.514.286.659.327 1.652.74 2.667.541a.607.607 0 10-.233-1.192c-.225.04-.455.04-.68-.003h.001c.406-.275.855-.48 1.328-.605 1.873-.51 2.73.308 3.118 1.085.591 1.182.38 2.9-.436 3.534z" fill="#07CDC1"/></svg>