<svg width="52" height="52" fill="none" xmlns="http://www.w3.org/2000/svg"><path d="M33.706 12.315c1.071-.664 1.995-1.237 3.813-1.732 1.519-.415 2.92-.536 4.175-.382-1.8-1.076-4.166-1.28-6.913-.531-1.818.495-2.742 1.069-3.813 1.732-.68.437-1.384.833-2.11 1.187 1.072.458 2.03.731 2.904.831a21.381 21.381 0 001.944-1.105zm2.179 27.479c-.375-4.423-1.515-7.851-3.39-10.19a2.68 2.68 0 00-2.106-1 2.76 2.76 0 00-.641.076l.01.011c1.874 2.34 3.014 5.767 3.389 10.19a34.57 34.57 0 01.006 5.923.556.556 0 01-.007.045.812.812 0 001.096.917 1.05 1.05 0 00.341-.162 8.741 8.741 0 001.421-1.999 36.57 36.57 0 00-.12-3.811zm-13.793 5.01a7.928 7.928 0 01-.01-.099c-1.798-3.235-2.203-7.983-1.913-11.782.025-.328.05-.633.075-.917.154-1.827.246-2.93-.372-3.929-.595-.961-1.808-1.717-4.135-2.95-1.284-.679-2.264-2.042-2.76-3.838a9.999 9.999 0 01.12-5.563c.567-1.77 1.608-3.197 3.011-4.123 1.64-1.082 3.71-1.466 6.157-1.141.087.011.174.025.262.04-1.02-.46-2.062-.829-3-.953-2.447-.324-4.518.06-6.157 1.141-1.404.927-2.445 2.352-3.01 4.123a10 10 0 00-.121 5.564c.496 1.795 1.476 3.159 2.76 3.838 2.327 1.233 3.54 1.988 4.135 2.95.618.998.525 2.1.371 3.928-.023.285-.05.59-.074.917-.351 4.595.313 10.58 3.23 13.595.104.073.219.128.34.16a.833.833 0 001.044-.423.842.842 0 00.054-.493.296.296 0 01-.007-.045z" fill="#D4E1F4"/><path d="M12.571 25.254c2.092 1.107 3.236 1.802 3.687 2.53.417.674.34 1.578.203 3.22-.024.286-.05.593-.075.923-.204 2.667-.057 5.42.413 7.753.588 2.911 1.642 5.169 3.134 6.71a2.001 2.001 0 003.402-1.744c-.05-.518-.914-10.212 3.212-15.234a1.56 1.56 0 012.395.012c4.045 5.047 3.194 14.703 3.145 15.223a1.953 1.953 0 001.948 2.303c.225 0 .449-.038.661-.111.296-.086.568-.24.794-.45 1.491-1.54 2.545-3.798 3.133-6.71.47-2.332.617-5.085.413-7.752-.025-.329-.05-.634-.074-.92-.138-1.642-.214-2.546.202-3.22.45-.727 1.595-1.424 3.688-2.534 1.687-.896 2.942-2.814 3.442-5.262.481-2.357.218-4.909-.723-7.003a.607.607 0 10-1.109.498c.84 1.867 1.073 4.15.642 6.261-.428 2.092-1.456 3.707-2.822 4.432-4.714 2.502-4.854 3.089-4.531 6.93.024.282.05.585.074.91.533 6.976-1.308 11.561-3.206 13.523a1.055 1.055 0 01-.318.148.772.772 0 01-.966-.39.779.779 0 01-.05-.457.645.645 0 00.008-.05 34.59 34.59 0 00-.006-5.924c-.375-4.428-1.518-7.861-3.397-10.206a2.774 2.774 0 00-4.281-.023c-1.917 2.333-3.084 5.767-3.47 10.207a34.231 34.231 0 00-.01 5.947.747.747 0 00.008.05.78.78 0 01-.05.456.77.77 0 01-.965.39 1.124 1.124 0 01-.316-.145c-1.901-1.965-3.742-6.55-3.209-13.526.025-.327.05-.63.075-.914.323-3.843.183-4.43-4.532-6.926-1.266-.67-2.234-2.018-2.725-3.794a9.92 9.92 0 01.12-5.52c.591-1.85 2.661-6.065 9.086-5.213 2.1.278 4.73 1.797 6.47 2.802.523.302.976.563 1.31.73 1.617.804 4.044 1.819 6.439 1.351a.607.607 0 10-.233-1.192c-1.281.25-2.736.02-4.514-.72.683-.34 1.348-.717 1.99-1.13 1.065-.66 1.985-1.23 3.791-1.722 2.5-.682 4.647-.593 6.382.262a.608.608 0 00.538-1.09c-2.009-.99-4.445-1.106-7.24-.344-1.976.539-3.013 1.181-4.11 1.862a17.523 17.523 0 01-2.686 1.432c-.036.015-.07.032-.105.051a46.76 46.76 0 01-.954-.542c-1.824-1.053-4.579-2.644-6.918-2.955-5.089-.675-8.978 1.587-10.404 6.049-1.367 4.276.066 9.102 3.194 10.758z" fill="#0097B7"/><path d="M4.72 34.33a.606.606 0 00.507-.274 3.256 3.256 0 013.334-1.415.608.608 0 00.446-1.104 3.257 3.257 0 01-1.414-3.335.608.608 0 00-1.105-.446 3.257 3.257 0 01-3.334 1.414.608.608 0 00-.446 1.105 3.255 3.255 0 011.414 3.334.608.608 0 00.597.72zm1.668-4.737a4.46 4.46 0 00.783 1.844 4.463 4.463 0 00-1.844.782 4.461 4.461 0 00-.783-1.844 4.462 4.462 0 001.844-.782zm42.69-19.469a5.83 5.83 0 01-4.586-4.586.608.608 0 00-1.192 0 5.83 5.83 0 01-4.586 4.586.607.607 0 000 1.191 5.83 5.83 0 014.586 4.586.608.608 0 001.192 0 5.83 5.83 0 014.586-4.586.607.607 0 000-1.191zm-5.182 3.787a7.031 7.031 0 00-3.191-3.191 7.032 7.032 0 003.19-3.191 7.032 7.032 0 003.192 3.19 7.032 7.032 0 00-3.191 3.192zM14.273 38.969a.607.607 0 00-.489-.596 4.856 4.856 0 01-3.819-3.819.608.608 0 00-1.191 0 4.856 4.856 0 01-3.82 3.819.608.608 0 000 1.191 4.855 4.855 0 013.82 3.82.607.607 0 001.191 0 4.856 4.856 0 013.82-3.82.607.607 0 00.488-.595zM9.37 41.475a6.058 6.058 0 00-2.506-2.506 6.06 6.06 0 002.506-2.506 6.06 6.06 0 002.506 2.506 6.058 6.058 0 00-2.506 2.506z" fill="#07CDC1"/></svg>