<svg width="32" height="32" fill="none" xmlns="http://www.w3.org/2000/svg"><circle cx="16" cy="16" r="16" fill="#07CDC1"/><path d="M18.418 9.49a.854.854 0 00-1.003.68.862.862 0 00.677 1.01 3.462 3.462 0 012.743 2.75v.001a.86.86 0 001.006.68.865.865 0 00.677-1.01 5.174 5.174 0 00-4.1-4.111z" fill="#fff"/><path d="M18.356 6.008a.817.817 0 00-.625.176.852.852 0 00-.323.584.86.86 0 00.757.95 6.912 6.912 0 016.126 6.139.857.857 0 101.704-.192c-.454-4.058-3.595-7.206-7.639-7.657z" fill="#fff"/><path fill-rule="evenodd" clip-rule="evenodd" d="M15.032 16.972c3.989 3.988 4.894-.625 7.434 1.913 2.448 2.448 3.856 2.938.753 6.04-.388.312-2.857 4.07-11.534-4.605C3.007 11.644 6.762 9.172 7.074 8.784c3.11-3.11 3.592-1.695 6.04.753 2.54 2.54-2.071 3.447 1.918 7.435z" fill="#fff"/></svg>