<svg width="275" height="80" fill="none" xmlns="http://www.w3.org/2000/svg"><g clip-path="url(#clip0)" fill="#002642"><path fill-rule="evenodd" clip-rule="evenodd" d="M24.902 57.931c.842 3.838 2.646 9.835 6.616 10.915 3.008.72 5.895-1.68 7.459-3.838 3.127-4.078 5.413-13.314 3.729-18.591-.963-3.239-2.887-4.438-6.015-5.757-8.782-3.478-16.722-3.478-26.345-9.116-1.925-1.08-5.414-3.238-6.376-5.277-.722-1.44-.361-3.478.24-4.798.602-1.199 1.685-2.159 3.008-2.758 6.376-3.119 9.864 3.598 19.368 1.679 3.128-.6 6.736-2.399 9.263-2.399 3.85 0 6.015 1.92 6.736 5.038 1.203 4.437-.36 7.916-1.684 11.874h3.97c1.203-3.838 2.286-8.156 1.444-12.114-1.564-7.197-7.82-9.596-14.316-7.796-3.007.84-5.894 2.278-9.383 2.158-3.489-.12-6.015-1.918-9.263-2.518C7.218 12.953.361 16.912 0 23.628c-.24 4.438 2.286 6.717 5.534 9.116 3.729 2.638 9.503 5.277 13.954 6.596 4.692 1.44 14.316 3.479 18.045 5.638 2.887 1.679 2.406 6.356 1.925 9.115-.481 2.999-1.684 6.477-3.128 8.516-.481.84-2.045 2.399-3.128 2.639-1.443.36-2.526-1.92-3.007-2.88-1.564-3.597-2.166-8.635-2.887-12.593h-3.61c.121 2.639.723 5.637 1.204 8.156z"/><path fill-rule="evenodd" clip-rule="evenodd" d="M58.946 21.83c1.925 5.157 2.887 11.154 2.887 18.23 0 5.397-.722 13.073-2.887 18.11-2.166 4.439-5.293 8.037-9.143 11.035a32.741 32.741 0 01-11.669 5.518c-4.571 1.08-12.39 1.679-23.578 1.679H6.015V49.895h-3.61V80H20.09c9.263 0 16.12-.6 20.45-1.68 4.33-1.079 8.06-2.998 11.549-5.516 8.902-6.717 13.593-17.152 13.593-32.744 0-15.712-4.691-26.147-13.593-32.864C48.6 4.678 44.75 2.76 40.299 1.68 35.73.6 27.91 0 16.602 0H2.286v3.598h12.15c11.187 0 19.007.6 23.578 1.68 4.451 1.079 8.3 2.998 11.669 5.517 3.97 2.998 7.097 6.596 9.263 11.034z"/><path d="M236.986 46.057h3.729V21.829l.241-.12c1.684-.72 3.729-1.08 6.015-1.08 3.609 0 7.218 1.68 7.218 5.758v19.55h3.729V23.388l.12-.12c1.684-1.799 3.85-2.638 6.737-2.638 3.97 0 6.736 2.398 6.736 6.476v18.831h3.73v-19.19c0-5.638-4.091-8.876-9.624-8.876-3.369 0-6.737.96-9.263 3.238l-.361.36-.361-.36c-1.804-2.159-4.812-3.238-9.022-3.238-3.369 0-6.617.72-9.744 1.919v26.267h.12zm-9.744-10.195v.12c0 2.159-.722 3.958-2.045 5.157-1.323 1.2-3.368 1.8-5.654 1.8-2.406 0-4.331-.6-5.654-1.8-1.323-1.199-2.045-2.998-2.045-5.157v-.24h-3.609v.24c0 2.998.962 5.517 3.128 7.316 2.045 1.8 4.812 2.759 8.3 2.759 3.368 0 6.135-.96 8.301-2.759 2.045-1.799 3.007-4.318 3.007-7.316v-.24h-3.729v.12zm-7.699-14.513c2.406 0 4.331.6 5.654 1.92 1.323 1.199 2.045 2.878 2.045 5.037h3.609c0-2.999-1.083-5.518-3.008-7.317-2.045-1.919-4.812-2.758-8.3-2.758-3.368 0-6.135.96-8.301 2.758-2.045 1.92-3.127 4.318-3.127 7.317h3.609c0-2.16.721-3.838 2.045-5.038 1.443-1.319 3.368-1.919 5.774-1.919zm-24.902 15.233c0 5.037 2.045 9.475 7.699 9.475h2.647v-2.999h-2.165c-3.008 0-4.572-2.158-4.572-6.356V21.229h6.737v-2.998h-6.737V9.115h-3.609v27.467zm-9.984-8.876c-1.444-.96-3.97-1.919-7.339-2.878-3.007-.84-5.052-1.56-5.894-2.28-1.323-1.079-1.925-2.398-1.925-4.197 0-1.8.722-3.359 1.925-4.438 1.323-1.2 3.007-1.8 4.932-1.8 3.609 0 6.015 1.32 6.977 3.839l3.128-1.68c-1.804-3.597-5.173-5.397-10.105-5.397-3.248 0-5.774.96-7.94 2.76-2.045 1.798-3.127 4.197-3.127 6.956 0 2.638.962 4.797 2.767 6.357 1.323 1.079 3.729 2.158 7.338 3.118 2.887.84 4.932 1.68 6.135 2.399 1.804 1.2 2.767 2.878 2.767 5.157 0 2.04-.722 3.718-2.286 5.157-1.444 1.32-3.368 2.04-5.654 2.04-2.646 0-4.812-.96-6.376-2.64-.842-.959-1.443-1.918-1.804-2.878l-3.489 1.92c1.684 4.317 6.015 6.956 11.669 6.956 3.368 0 6.256-.96 8.541-2.999 2.286-2.039 3.369-4.557 3.369-7.676.36-3.358-.963-5.997-3.609-7.796zm-43.067 18.35V21.83l.241-.12c1.804-.72 3.97-1.08 6.375-1.08 4.451 0 7.579 2.16 7.579 6.837v18.471h3.729v-18.83c0-6.717-5.172-9.356-11.308-9.356-3.729 0-7.217.72-10.345 1.92v26.266h3.729v.12zm-12.27-32.023c.722 0 1.323-.24 1.684-.72.481-.48.722-.96.722-1.679 0-.72-.241-1.32-.722-1.68a2.379 2.379 0 00-1.684-.719c-.722 0-1.203.24-1.684.72-.482.48-.722 1.08-.722 1.68 0 .719.24 1.199.722 1.678.481.48 1.082.72 1.684.72zm-1.805 3.958v27.946h3.489V17.991h-3.489zm-31.036-5.397h5.654c3.127.12 5.293.24 6.736.6 1.805.36 3.369 1.079 4.572 2.038 1.563 1.32 2.646 2.999 3.488 4.918.722 2.039 1.203 4.438 1.203 7.436 0 2.999-.361 5.397-1.203 7.436-.842 2.04-2.045 3.719-3.488 5.038-1.203.96-2.647 1.68-4.452 2.039-1.684.36-4.811.6-9.383.6H96.48V29.145h-3.61v16.792h8.181c4.21 0 7.338-.24 9.383-.72 2.045-.48 3.729-1.319 5.293-2.518 4.09-3.119 6.256-7.916 6.256-14.993 0-7.196-2.166-11.994-6.256-15.112-1.564-1.2-3.368-2.04-5.413-2.52-2.045-.479-5.654-.719-10.827-.719H92.87v3.239h3.609zm8.781 48.936v2.758h3.729v-2.759h.963v6.717h-.963v-2.999h-3.729v2.999h-.962v-6.717h.962zm11.068 6.596l-.241-.96c-.361.36-.722.72-.962.84-.361.12-.722.24-1.203.24-.722 0-1.203-.12-1.564-.48a1.983 1.983 0 01-.602-1.44c0-1.319 1.083-2.038 3.248-2.158h1.083v-.36c0-.48-.12-.96-.361-1.2-.24-.24-.601-.36-1.083-.36-.601 0-1.203.12-1.924.48l-.361-.72c.361-.12.722-.359 1.082-.479.361-.12.843-.12 1.203-.12.843 0 1.444.12 1.805.48s.601.96.601 1.68v4.557h-.721zm-2.286-.72c.601 0 1.083-.12 1.444-.48.36-.36.601-.84.601-1.439v-.6h-.962c-.842 0-1.444.12-1.805.36s-.481.6-.481 1.08c0 .36.12.6.361.84.12.24.361.24.842.24zm6.135.72h-1.083v-6.717h5.654v6.717h-1.082v-5.757h-3.609v5.757h.12zm12.511-3.358c0 1.08-.241 1.919-.842 2.519-.602.6-1.323.96-2.286.96-.601 0-1.082-.12-1.564-.48-.481-.24-.842-.72-1.082-1.2-.241-.48-.361-1.2-.361-1.8 0-1.079.24-1.918.842-2.518.601-.6 1.323-.96 2.286-.96.962 0 1.684.36 2.285.96.481.6.722 1.56.722 2.519zm-5.052 0c0 .84.12 1.559.481 1.919.361.48.842.72 1.564.72.721 0 1.203-.24 1.563-.72.361-.48.482-1.08.482-1.92 0-.839-.121-1.438-.482-1.918-.36-.48-.842-.72-1.563-.72-.722 0-1.203.24-1.564.6s-.481 1.2-.481 2.039zm11.909 3.358h-1.083v-5.757h-2.045c-.12 1.44-.24 2.639-.481 3.478-.24.84-.481 1.44-.722 1.92-.361.359-.721.599-1.203.599-.24 0-.361 0-.481-.12v-.72h.361c.481 0 .842-.48 1.083-1.439.24-.96.481-2.519.601-4.558h3.97v6.597zm3.128-6.596v2.758h3.729v-2.759h.962v6.717h-.962v-2.999h-3.729v2.999h-.963v-6.717h.963zm7.218 6.596h-1.203l1.924-2.879c-.481-.12-.962-.36-1.203-.72-.24-.36-.36-.719-.36-1.199 0-.6.24-1.08.601-1.44.361-.359.962-.479 1.684-.479h3.008v6.717h-.963v-2.639h-1.684l-1.804 2.639zm.12-4.678c0 .72.601 1.2 1.684 1.2h1.684v-2.28h-1.804c-.963 0-1.564.36-1.564 1.08zm9.383 4.798c-.962 0-1.804-.36-2.406-.96-.601-.6-.842-1.439-.842-2.518 0-1.08.241-1.92.842-2.519.481-.6 1.203-.96 2.165-.96.843 0 1.564.24 2.046.84.481.6.721 1.32.721 2.16v.599h-4.571c0 .84.241 1.439.602 1.799.36.36.962.6 1.563.6.722 0 1.444-.12 2.166-.48v.96c-.361.12-.722.24-.963.36-.481.12-.842.12-1.323.12zm-.241-5.997c-.481 0-.962.12-1.323.48s-.481.84-.601 1.44h3.488c0-.6-.12-1.08-.481-1.44-.361-.36-.601-.48-1.083-.48zm7.94 4.917l.241-.6.24-.719 1.805-4.438h1.323v6.717h-.842v-5.517l-.12.36-.361.959-1.684 4.198h-.842l-1.685-4.198c-.24-.6-.361-.96-.481-1.32v5.518h-1.083v-6.717h1.203l1.805 4.198c.12.6.361 1.08.481 1.56zm7.94-5.636h1.082l1.444 3.837c.361.84.481 1.44.602 1.92 0-.24.12-.6.36-1.08.121-.48.722-2.039 1.685-4.678h1.082l-2.887 7.676c-.24.72-.601 1.32-.962 1.56-.361.36-.842.48-1.444.48-.361 0-.601 0-.962-.12v-.84c.24 0 .481.12.722.12.721 0 1.203-.36 1.443-1.2l.361-.96-2.526-6.716zm12.39 6.596h-1.082v-5.757h-2.045c-.121 1.44-.241 2.639-.481 3.478-.241.84-.482 1.44-.722 1.92-.361.359-.722.599-1.203.599-.241 0-.361 0-.481-.12v-.72h.36c.482 0 .843-.48 1.083-1.439.241-.96.481-2.519.602-4.558h3.969v6.597zm3.128-3.838h1.805c.842 0 1.443.12 1.924.48.482.36.602.84.602 1.439 0 .72-.241 1.2-.602 1.559-.481.36-1.082.48-1.924.48h-2.767v-6.717h.962v2.759zm0 .84v2.158h1.684c1.083 0 1.564-.36 1.564-1.08 0-.359-.12-.599-.361-.839-.24-.12-.722-.24-1.323-.24h-1.564zm6.496 2.998h-.962v-6.717h.962v6.717zm1.805-3.958c0-1.44.24-2.639.601-3.478.481-.84 1.083-1.32 2.045-1.56 1.203-.24 2.166-.48 3.128-.6l.241.84c-1.444.24-2.406.48-3.008.6-.601.12-1.083.48-1.323.96a4.62 4.62 0 00-.481 2.038h.12c.241-.36.601-.6.962-.839.361-.24.842-.24 1.203-.24.842 0 1.444.24 1.925.84.481.48.722 1.319.722 2.159 0 1.079-.241 1.919-.842 2.398-.602.48-1.324.84-2.286.84s-1.684-.36-2.165-1.08c-.602-.6-.842-1.559-.842-2.878zm3.127 3.238c1.203 0 1.925-.84 1.925-2.399 0-1.559-.601-2.278-1.684-2.278-.361 0-.601.12-.842.24s-.602.24-.842.48l-.602.599c0 1.08.121 1.919.482 2.399.36.72.842.96 1.563.96zm8.662-5.876h1.082l-2.887 3.238 3.128 3.478h-1.203l-3.007-3.358v3.358h-.963v-6.717h.963v3.239l2.887-3.239zm6.616 6.596l-.24-.96c-.361.36-.722.72-.963.84-.361.12-.722.24-1.203.24-.722 0-1.203-.12-1.564-.48-.36-.36-.601-.84-.601-1.44 0-1.319 1.083-2.038 3.248-2.158h1.083v-.36c0-.48-.121-.96-.361-1.2-.241-.24-.602-.36-1.083-.36-.601 0-1.203.12-1.925.48l-.361-.72c.361-.12.722-.359 1.083-.479s.842-.12 1.203-.12c.842 0 1.444.12 1.804.48.361.36.602.96.602 1.68v4.557h-.722zm-2.285-.72c.601 0 1.082-.12 1.443-.48s.602-.84.602-1.439v-.6h-.963c-.842 0-1.443.12-1.804.36s-.481.6-.481 1.08c0 .36.12.6.36.84.121.24.482.24.843.24zm8.661-.24l.241-.6.24-.719 1.805-4.438h1.323v6.717h-.842v-5.517l-.121.36-.36.959-1.685 4.198h-.842l-1.684-4.198c-.24-.6-.361-.96-.481-1.32v5.518h-1.083v-6.717h1.203l1.805 4.198c.12.6.361 1.08.481 1.56zm6.737-5.636v5.636l3.609-5.758h1.323v6.717h-.963V62.37l-3.608 5.637h-1.324V61.29h.963v.24zm13.713 5.636l.241-.6.241-.719 1.804-4.438h1.323v6.717h-.842v-5.517l-.12.36-.361.959-1.684 4.198h-.842l-1.684-4.198c-.241-.6-.361-.96-.481-1.32v5.518h-1.083v-6.717h1.203l1.804 4.198c.121.6.361 1.08.481 1.56zm6.617-5.636v5.636l3.609-5.758h1.323v6.717h-.962V62.37l-3.609 5.637h-1.324V61.29h.963v.24zm10.105 6.716c-.481 0-.842-.12-1.203-.24a1.873 1.873 0 01-.963-.72c0 .36.121.72.121 1.08v2.759h-.963V61.41h.842v.959c.241-.36.602-.6.963-.84.361-.12.722-.24 1.203-.24.842 0 1.564.36 2.045.96.481.6.722 1.44.722 2.519 0 1.08-.241 1.919-.722 2.519-.481.72-1.083.96-2.045.96zm-.12-5.997c-.722 0-1.203.24-1.444.6-.241.36-.481.96-.481 1.799v.12c0 .96.12 1.559.481 2.039.361.36.842.6 1.564.6.601 0 1.083-.24 1.323-.72.361-.48.481-1.08.481-1.92 0-.839-.12-1.438-.481-1.918-.361-.36-.842-.6-1.443-.6z"/></g><defs><clipPath id="clip0"><path fill="#fff" d="M0 0h275v80H0z"/></clipPath></defs></svg>