<svg width="18" height="20" fill="none" xmlns="http://www.w3.org/2000/svg"><path fill-rule="evenodd" clip-rule="evenodd" d="M9 0h.033c4.687.018 8.485 3.842 8.467 8.522v.093c-.063 3.345-2.074 6.12-3.75 7.86a20.62 20.62 0 01-1.507 1.42.746.746 0 01-.969-1.134c.485-.413.956-.857 1.4-1.32 1.49-1.546 3.279-3.992 3.333-6.853.015-3.93-3.115-7.082-6.98-7.098H9c-3.851 0-6.992 3.122-7.007 6.97a9.12 9.12 0 001.86 5.226c1.343 1.789 3.381 3.683 5.318 4.944A.743.743 0 018.763 20a.74.74 0 01-.407-.121C6.282 18.529 4.1 16.5 2.66 14.584A10.607 10.607 0 01.5 8.513C.518 3.786 4.328 0 9 0zM7.255 8.614c0 .959.782 1.74 1.742 1.74s1.742-.781 1.742-1.74c0-.96-.781-1.74-1.742-1.74a.746.746 0 110-1.49 3.236 3.236 0 013.235 3.23 3.236 3.236 0 01-3.235 3.23 3.236 3.236 0 01-3.235-3.23.746.746 0 011.493 0z" fill="#0097B7"/></svg>