<svg width="26" height="26" fill="none" xmlns="http://www.w3.org/2000/svg"><path d="M0 26l2.236-6.708a12.708 12.708 0 01-1.788-6.516C.448 5.72 6.168 0 13.224 0S26 5.72 26 12.776s-5.72 12.776-12.776 12.776c-2.147 0-4.168-.532-5.944-1.468L0 26z" fill="#0097B7"/><path d="M21.375 17.028c-.59-1.115-2.765-2.39-2.765-2.39-.492-.28-1.087-.312-1.367.188 0 0-.707.848-.887.97-.821.556-1.582.535-2.35-.233l-1.784-1.785-1.785-1.784c-.768-.768-.79-1.529-.233-2.35.122-.18.97-.887.97-.887.5-.281.469-.874.188-1.367 0 0-1.275-2.175-2.39-2.765a1.222 1.222 0 00-1.436.216l-.788.788c-2.5 2.5-1.269 5.322 1.231 7.822l2.285 2.285 2.285 2.285c2.5 2.5 5.322 3.731 7.822 1.231l.789-.788c.379-.38.466-.962.215-1.436z" fill="#fff"/></svg>